# xmcd CD database file
#
# Track frame offsets:
#	150
#	26077
#	59062
#	92425
#	122630
#	129131
#	145364
#	172072
#	200449
#
# Disc length: 2914 seconds
#
# Revision: 0
# Processed by: cddbd v1.4PL0 Copyright (c) Steve Scherf et al.
# Submitted via: CDex 1.51
#
DISCID=7f0b6009
DTITLE=Mathias Landaeus - Blåbete
DYEAR=1900
DGENRE=Jazz
TTITLE0=Farmors Vaggvisa
TTITLE1=Flux
TTITLE2=Trust
TTITLE3=Lunar
TTITLE4=Blåbete
TTITLE5=Till Samuel
TTITLE6=Bikini Time
TTITLE7=Brief
TTITLE8=Prayer for the Stratosphere
EXTD=
EXTT0=
EXTT1=
EXTT2=
EXTT3=
EXTT4=
EXTT5=
EXTT6=
EXTT7=
EXTT8=
PLAYORDER=
